<svg xmlns="http://www.w3.org/2000/svg" xmlns:xlink="http://www.w3.org/1999/xlink" fill="none" version="1.1" width="249.9912109375" height="155.96435546875" viewBox="0 0 249.9912109375 155.96435546875"><defs><mask id="master_svg0_sa198_39701"><g><rect x="61.01578915119171" y="2.782917022705078" width="73.28349304199219" height="45.45431900024414" rx="0" fill="#FFFFFF" fill-opacity="1"/></g></mask><mask id="master_svg1_sa198_39704"><g><rect x="60.08815002441406" y="0" width="76.06640625" height="48.23723602294922" rx="0" fill="#FFFFFF" fill-opacity="1"/></g></mask></defs><g><g><g><path d="M124.18778439941406,51.5075080859375C124.18778439941406,51.5075080859375,67.28203439941406,51.5075080859375,67.28203439941406,51.5075080859375C67.28203439941406,51.5075080859375,62.57838439941406,45.0140380859375,62.57838439941406,45.0140380859375C62.57838439941406,45.0140380859375,118.66258439941407,45.0140380859375,118.66258439941407,45.0140380859375C118.66258439941407,45.0140380859375,124.18778439941406,51.5075080859375,124.18778439941406,51.5075080859375C124.18778439941406,51.5075080859375,124.18778439941406,51.5075080859375,124.18778439941406,51.5075080859375Z" fill="#46494B" fill-opacity="1"/></g><g transform="matrix(0,-1,1,0,-40.52610778808594,161.38209533691406)"><path d="M60.42799377441406,107.4475715625C60.42799377441406,107.4475715625,108.93679377441407,108.2871115625,108.93679377441407,108.2871115625C108.93679377441407,108.2871115625,115.37379377441405,102.1762115625,115.37379377441405,102.1762115625C115.37379377441405,102.1762115625,66.17919377441406,100.9541015625,66.17919377441406,100.9541015625C66.17919377441406,100.9541015625,60.42799377441406,107.4475715625,60.42799377441406,107.4475715625C60.42799377441406,107.4475715625,60.42799377441406,107.4475715625,60.42799377441406,107.4475715625Z" fill="#46494B" fill-opacity="1"/></g><g><rect x="61.14283752441406" y="44.43505859375" width="59.064754486083984" height="49.56144714355469" rx="5" fill-opacity="0" stroke-opacity="1" stroke="#FFFFFF" fill="none" stroke-width="2"/></g><g><path d="M124.18583127441406,52.50763203125C124.18583127441406,52.50763203125,67.28008127441406,52.50763203125,67.28008127441406,52.50763203125C67.28008127441406,52.50763203125,62.57643127441406,46.90283203125,62.57643127441406,46.90283203125C62.57643127441406,46.90283203125,118.66063127441407,46.90283203125,118.66063127441407,46.90283203125C118.66063127441407,46.90283203125,124.18583127441406,52.50763203125,124.18583127441406,52.50763203125C124.18583127441406,52.50763203125,124.18583127441406,52.50763203125,124.18583127441406,52.50763203125Z" fill="#46494B" fill-opacity="1"/></g><g><rect x="68.14283752441406" y="52.43516540527344" width="57.064754486083984" height="47.56144714355469" rx="4" fill="#232629" fill-opacity="1"/><rect x="67.14283752441406" y="51.43516540527344" width="59.064754486083984" height="49.56144714355469" rx="5" fill-opacity="0" stroke-opacity="1" stroke="#FFFFFF" fill="none" stroke-width="2"/></g><g transform="matrix(-0.6401844024658203,-0.7682212591171265,0.7682212591171265,-0.6401844024658203,164.6900472990401,179.87292551881364)"><line x1="124.46900939941406" y1="50.36811828613281" x2="132.2792592048645" y2="50.36811828613281" fill-opacity="0" stroke-opacity="1" stroke="#FFFFFF" fill="none" stroke-width="2"/></g><g><path d="M62.927615274414066,44.7797051875L69.45789127441407,52.3553871875L67.94302127441406,53.6612071875L61.41274727441406,46.0855291875L62.927615274414066,44.7797051875Z" fill-rule="evenodd" fill="#FFFFFF" fill-opacity="1"/></g><g transform="matrix(-0.6747691035270691,-0.738028883934021,0.738028883934021,-0.6747691035270691,39.33267369791429,217.89165587649723)"><line x1="67.67604064941406" y1="99.27936553955078" x2="76.47444343566895" y2="99.27936553955078" fill-opacity="0" stroke-opacity="1" stroke="#000000" fill="none" stroke-width="2"/></g><g><path d="M104.6148410888672,69.10911113647461C104.6148410888672,65.26671113647461,101.49994108886719,62.15182113647461,97.65753108886719,62.15182113647461C93.81513108886719,62.15182113647461,90.70024108886719,65.26671113647461,90.70024108886719,69.10911113647461C90.70024108886719,70.79720113647461,91.30144608886718,72.34482113647461,92.30142108886719,73.54962113647461L90.70024108886719,92.7638211364746L104.6148410888672,92.7638211364746L103.01364108886719,73.54962113647461C104.01364108886719,72.34482113647461,104.6148410888672,70.79720113647461,104.6148410888672,69.10911113647461Z" fill-rule="evenodd" fill="#232629" fill-opacity="1"/><path d="M103.01364108886719,73.54962113647461C104.01364108886719,72.34482113647461,104.6148410888672,70.79720113647461,104.6148410888672,69.10911113647461C104.6148410888672,65.26671113647461,101.49994108886719,62.15182113647461,97.65753108886719,62.15182113647461C93.81513108886719,62.15182113647461,90.70024108886719,65.26671113647461,90.70024108886719,69.10911113647461C90.70024108886719,70.79720113647461,91.30144608886718,72.34482113647461,92.30142108886719,73.54962113647461L90.82524108886719,91.2638211364746L90.70024108886719,92.7638211364746L104.6148410888672,92.7638211364746L104.4898410888672,91.2638211364746L103.01364108886719,73.54962113647461ZM102.98464108886719,91.2638211364746L101.46794108886719,73.06332113647461L101.85944108886719,72.5917211364746Q103.1148410888672,71.07911113647461,103.1148410888672,69.10911113647461Q103.1148410888672,66.84863113647461,101.51644108886718,65.25022113647461Q99.91802108886719,63.65182113647461,97.65754108886719,63.65182113647461Q95.39705108886719,63.65182113647461,93.79864108886719,65.25022113647461Q92.20024108886719,66.84863113647461,92.20024108886719,69.10911113647461Q92.20024108886719,71.07911113647461,93.45565108886719,72.5917211364746L93.84714108886719,73.06332113647461L92.33044108886719,91.2638211364746L102.98464108886719,91.2638211364746Z" fill-rule="evenodd" fill="#FFFFFF" fill-opacity="1"/></g><g><path d="M99.9364461517334,72.57558822509766Q100.2776861517334,72.22536822509765,100.5452261517334,71.81706822509766Q100.8127761517334,71.40876822509766,100.9967961517334,70.95737822509766Q101.18084615173339,70.50598822509765,101.2745461517334,70.02809822509765Q101.3682461517334,69.55019822509766,101.3682461517334,69.06336822509766Q101.3682461517334,68.93923822509765,101.3621461517334,68.81526822509765Q101.3559461517334,68.69128822509765,101.3437461517334,68.56776822509765Q101.3314461517334,68.44423822509765,101.3130461517334,68.32145822509766Q101.2946461517334,68.19867822509765,101.2702461517334,68.07693822509765Q101.2458461517334,67.95519822509766,101.2153461517334,67.83479822509766Q101.1849461517334,67.71438822509765,101.1485761517334,67.59561822509765Q101.1122161517334,67.47683822509765,101.0700261517334,67.35996822509766Q101.0278261517334,67.24309822509765,100.9798961517334,67.12841822509766Q100.9319661517334,67.01374822509766,100.8784161517334,66.90153822509765Q100.8248661517334,66.78933822509765,100.7658161517334,66.67986822509765Q100.7067761517334,66.57039822509766,100.6423861517334,66.46393822509765Q100.5779961517334,66.35746822509766,100.5084061517334,66.25426822509766Q100.4388261517334,66.15105822509766,100.3642061517334,66.05135822509766Q100.2895961517334,65.95166822509766,100.2101461517334,65.85571822509766Q100.1306861517334,65.75976822509766,100.0465661517334,65.66779822509766Q99.96245615173339,65.57582822509765,99.8738861517334,65.48805822509766Q99.7853261517334,65.40028822509765,99.6925161517334,65.31692822509766Q99.5997161517334,65.23357822509766,99.5028961517334,65.15482822509766Q99.4060761517334,65.07608822509765,99.3054661517334,65.00214922509765Q99.2048661517334,64.92820922509766,99.1007261517334,64.85924922509766Q98.9965761517334,64.79028922509765,98.8891461517334,64.72647722509765Q98.7817161517334,64.66266522509765,98.6712561517334,64.60415322509766Q98.5607961517334,64.54564122509765,98.4475661517334,64.49257222509766Q98.3343461517334,64.43950222509766,98.2186261517334,64.39200222509766Q98.1029061517334,64.34450222509766,97.9849761517334,64.30268622509766Q97.8670461517334,64.26086922509765,97.74719615173339,64.22483822509766Q97.6273361517334,64.18880722509766,97.5058361517334,64.15864722509765Q97.3843361517334,64.12848822509766,97.2614961517334,64.10427252509766Q97.1386461517334,64.08005722509766,97.0147561517334,64.06184442509766Q96.8908561517334,64.04363172509765,96.7662161517334,64.03146542509765Q96.6415661517334,64.01929912509766,96.5164661517334,64.01320869509766Q96.3913661517334,64.00711822509766,96.2661161517334,64.00711822509766Q96.1408661517334,64.00711822509766,96.0157561517334,64.01320869509766Q95.8906561517334,64.01929912509766,95.7660161517334,64.03146542509765Q95.6413661517334,64.04363172509765,95.5174661517334,64.06184442509766Q95.3935761517334,64.08005722509766,95.2707261517334,64.10427252509766Q95.1478861517334,64.12848822509766,95.0263861517334,64.15864722509765Q94.9048861517334,64.18880722509766,94.7850361517334,64.22483822509766Q94.6651761517334,64.26086922509765,94.5472461517334,64.30268622509766Q94.4293161517334,64.34450222509766,94.31359615173339,64.39200222509766Q94.1978761517334,64.43950222509766,94.0846561517334,64.49257222509766Q93.9714261517334,64.54564122509765,93.8609661517334,64.60415322509766Q93.7505061517334,64.66266522509765,93.6430761517334,64.72647722509765Q93.5356461517334,64.79028922509765,93.4314961517334,64.85924922509766Q93.3273561517334,64.92820922509766,93.2267561517334,65.00214922509765Q93.1261561517334,65.07608822509765,93.0293361517334,65.15482822509766Q92.9325161517334,65.23357822509766,92.8397061517334,65.31692822509766Q92.7469061517334,65.40028822509765,92.6583361517334,65.48805822509766Q92.5697661517334,65.57582822509765,92.4856561517334,65.66779822509766Q92.4015461517334,65.75976822509766,92.3220861517334,65.85571822509766Q92.2426261517334,65.95166822509766,92.1680161517334,66.05135822509766Q92.0934021517334,66.15105822509766,92.0238161517334,66.25426822509766Q91.9542301517334,66.35746822509766,91.8898381517334,66.46393822509765Q91.8254461517334,66.57039822509766,91.7664031517334,66.67986822509765Q91.7073601517334,66.78933822509765,91.6538091517334,66.90153822509765Q91.6002571517334,67.01374822509766,91.5523251517334,67.12841822509766Q91.5043941517334,67.24309822509765,91.4621981517334,67.35996822509766Q91.4200021517334,67.47683822509765,91.38364415173339,67.59561822509765Q91.3472851517334,67.71438822509765,91.3168511517334,67.83479822509766Q91.2864181517334,67.95519822509766,91.26198285173339,68.07693822509765Q91.2375475517334,68.19867822509765,91.2191693517334,68.32145822509766Q91.20079125173339,68.44423822509765,91.1885144517334,68.56776822509765Q91.1762377517334,68.69128822509765,91.1700919317334,68.81526822509765Q91.1639461517334,68.93923822509765,91.1639461517334,69.06336822509766Q91.1639461517334,69.54988822509766,91.2575570517334,70.02747822509765Q91.3511681517334,70.50506822509766,91.5349551517334,70.95620822509765Q91.7187421517334,71.40735822509765,91.9859601517334,71.81548822509765Q92.2531761517334,72.22362822509766,92.5940261517334,72.57377822509766L91.6268371517334,90.05341822509766L100.9035261517334,90.05341822509766L99.9364461517334,72.57558822509766Z" fill-rule="evenodd" fill="#FFFFFF" fill-opacity="1"/><path d="M99.9364461517334,72.57558822509766Q100.2776861517334,72.22536822509765,100.5452261517334,71.81706822509766Q100.8127761517334,71.40876822509766,100.9967961517334,70.95737822509766Q101.18084615173339,70.50598822509765,101.2745461517334,70.02809822509765Q101.3682461517334,69.55019822509766,101.3682461517334,69.06336822509766Q101.3682461517334,68.93923822509765,101.3621461517334,68.81526822509765Q101.3559461517334,68.69128822509765,101.3437461517334,68.56776822509765Q101.3314461517334,68.44423822509765,101.3130461517334,68.32145822509766Q101.2946461517334,68.19867822509765,101.2702461517334,68.07693822509765Q101.2458461517334,67.95519822509766,101.2153461517334,67.83479822509766Q101.1849461517334,67.71438822509765,101.1485761517334,67.59561822509765Q101.1122161517334,67.47683822509765,101.0700261517334,67.35996822509766Q101.0278261517334,67.24309822509765,100.9798961517334,67.12841822509766Q100.9319661517334,67.01374822509766,100.8784161517334,66.90153822509765Q100.8248661517334,66.78933822509765,100.7658161517334,66.67986822509765Q100.7067761517334,66.57039822509766,100.6423861517334,66.46393822509765Q100.5779961517334,66.35746822509766,100.5084061517334,66.25426822509766Q100.4388261517334,66.15105822509766,100.3642061517334,66.05135822509766Q100.2895961517334,65.95166822509766,100.2101461517334,65.85571822509766Q100.1306861517334,65.75976822509766,100.0465661517334,65.66779822509766Q99.96245615173339,65.57582822509765,99.8738861517334,65.48805822509766Q99.7853261517334,65.40028822509765,99.6925161517334,65.31692822509766Q99.5997161517334,65.23357822509766,99.5028961517334,65.15482822509766Q99.4060761517334,65.07608822509765,99.3054661517334,65.00214922509765Q99.2048661517334,64.92820922509766,99.1007261517334,64.85924922509766Q98.9965761517334,64.79028922509765,98.8891461517334,64.72647722509765Q98.7817161517334,64.66266522509765,98.6712561517334,64.60415322509766Q98.5607961517334,64.54564122509765,98.4475661517334,64.49257222509766Q98.3343461517334,64.43950222509766,98.2186261517334,64.39200222509766Q98.1029061517334,64.34450222509766,97.9849761517334,64.30268622509766Q97.8670461517334,64.26086922509765,97.74719615173339,64.22483822509766Q97.6273361517334,64.18880722509766,97.5058361517334,64.15864722509765Q97.3843361517334,64.12848822509766,97.2614961517334,64.10427252509766Q97.1386461517334,64.08005722509766,97.0147561517334,64.06184442509766Q96.8908561517334,64.04363172509765,96.7662161517334,64.03146542509765Q96.6415661517334,64.01929912509766,96.5164661517334,64.01320869509766Q96.3913661517334,64.00711822509766,96.2661161517334,64.00711822509766Q96.1408661517334,64.00711822509766,96.0157561517334,64.01320869509766Q95.8906561517334,64.01929912509766,95.7660161517334,64.03146542509765Q95.6413661517334,64.04363172509765,95.5174661517334,64.06184442509766Q95.3935761517334,64.08005722509766,95.2707261517334,64.10427252509766Q95.1478861517334,64.12848822509766,95.0263861517334,64.15864722509765Q94.9048861517334,64.18880722509766,94.7850361517334,64.22483822509766Q94.6651761517334,64.26086922509765,94.5472461517334,64.30268622509766Q94.4293161517334,64.34450222509766,94.31359615173339,64.39200222509766Q94.1978761517334,64.43950222509766,94.0846561517334,64.49257222509766Q93.9714261517334,64.54564122509765,93.8609661517334,64.60415322509766Q93.7505061517334,64.66266522509765,93.6430761517334,64.72647722509765Q93.5356461517334,64.79028922509765,93.4314961517334,64.85924922509766Q93.3273561517334,64.92820922509766,93.2267561517334,65.00214922509765Q93.1261561517334,65.07608822509765,93.0293361517334,65.15482822509766Q92.9325161517334,65.23357822509766,92.8397061517334,65.31692822509766Q92.7469061517334,65.40028822509765,92.6583361517334,65.48805822509766Q92.5697661517334,65.57582822509765,92.4856561517334,65.66779822509766Q92.4015461517334,65.75976822509766,92.3220861517334,65.85571822509766Q92.2426261517334,65.95166822509766,92.1680161517334,66.05135822509766Q92.0934021517334,66.15105822509766,92.0238161517334,66.25426822509766Q91.9542301517334,66.35746822509766,91.8898381517334,66.46393822509765Q91.8254461517334,66.57039822509766,91.7664031517334,66.67986822509765Q91.7073601517334,66.78933822509765,91.6538091517334,66.90153822509765Q91.6002571517334,67.01374822509766,91.5523251517334,67.12841822509766Q91.5043941517334,67.24309822509765,91.4621981517334,67.35996822509766Q91.4200021517334,67.47683822509765,91.38364415173339,67.59561822509765Q91.3472851517334,67.71438822509765,91.3168511517334,67.83479822509766Q91.2864181517334,67.95519822509766,91.26198285173339,68.07693822509765Q91.2375475517334,68.19867822509765,91.2191693517334,68.32145822509766Q91.20079125173339,68.44423822509765,91.1885144517334,68.56776822509765Q91.1762377517334,68.69128822509765,91.1700919317334,68.81526822509765Q91.1639461517334,68.93923822509765,91.1639461517334,69.06336822509766Q91.1639461517334,69.54988822509766,91.2575570517334,70.02747822509765Q91.3511681517334,70.50506822509766,91.5349551517334,70.95620822509765Q91.7187421517334,71.40735822509765,91.9859601517334,71.81548822509765Q92.2531761517334,72.22362822509766,92.5940261517334,72.57377822509766L91.7098351517334,88.55341822509766L91.6268371517334,90.05341822509766L100.9035261517334,90.05341822509766L100.82053615173339,88.55341822509766L99.9364461517334,72.57558822509766ZM99.3182361517334,88.55341822509766L98.4023361517334,72.00063822509766L98.8621061517334,71.52877822509765Q99.8682761517334,70.49615822509766,99.8682761517334,69.06336822509766Q99.8682761517334,67.59429822509766,98.8180361517334,66.55349822509766Q97.7621461517334,65.50711822509766,96.2661161517334,65.50711822509766Q94.77007615173339,65.50711822509766,93.7141861517334,66.55349822509766Q92.6639461517334,67.59429822509766,92.6639461517334,69.06336822509766Q92.6639461517334,70.49512822509766,93.6688761517334,71.52749822509766L94.1281061517334,71.99927822509765L93.2121261517334,88.55341822509766L99.3182361517334,88.55341822509766Z" fill-rule="evenodd" fill="#FFFFFF" fill-opacity="1"/></g><g mask="url(#master_svg0_sa198_39701)"><g><rect x="72.86539852619171" y="10.921112537384033" width="41.23723602294922" height="69.06640625" rx="20.61861801147461" fill-opacity="0" stroke-opacity="1" stroke="#FFFFFF" fill="none" stroke-width="7"/></g></g><g mask="url(#master_svg1_sa198_39704)"><g><path d="M93.54804689941406,12.986948013305664C103.83054689941406,12.986948013305664,112.16604689941406,21.916288013305664,112.16604689941406,32.93114801330566L112.16604689941406,63.543248013305664C112.16604689941406,74.55814801330567,103.83054689941406,83.48754801330567,93.54804689941406,83.48754801330567C83.26553689941406,83.48754801330567,74.92994689941406,74.55814801330567,74.92994689941406,63.543248013305664L74.92994689941406,32.93114801330566C74.92994689941406,21.916288013305664,83.26553689941406,12.986948013305664,93.54804689941406,12.986948013305664ZM93.54804689941406,14.986948013305664Q90.19214689941407,14.986948013305664,87.12644689941406,16.375998013305665Q84.14921689941406,17.724948013305664,81.84503689941407,20.193248013305663Q79.52713689941406,22.676258013305663,78.25329689941407,25.902448013305666Q76.92994689941406,29.254048013305663,76.92994689941406,32.93114801330566L76.92994689941406,63.543248013305664Q76.92994689941406,67.22034801330567,78.25329689941407,70.57194801330567Q79.52713689941406,73.79814801330566,81.84503689941407,76.28124801330566Q84.14921689941406,78.74954801330567,87.12644689941406,80.09844801330567Q90.19214689941407,81.48754801330567,93.54804689941406,81.48754801330567Q96.90384689941406,81.48754801330567,99.96964689941406,80.09844801330567Q102.94684689941406,78.74954801330567,105.25104689941406,76.28124801330566Q107.56894689941407,73.79824801330567,108.84274689941407,70.57194801330567Q110.16604689941406,67.22034801330567,110.16604689941406,63.543248013305664L110.16604689941406,32.93114801330566Q110.16604689941406,29.254048013305663,108.84274689941407,25.902448013305666Q107.56894689941407,22.676268013305666,105.25104689941406,20.193248013305663Q102.94684689941406,17.724948013305664,99.96964689941406,16.375998013305665Q96.90384689941406,14.986948013305664,93.54804689941406,14.986948013305664Z" fill-rule="evenodd" fill="#46494B" fill-opacity="1"/></g></g></g><g><g><path d="M14.9287109375,100.37844705581665L14.9287109375,138.96444705581666Q14.9287109375,141.20104705581664,15.7939709375,143.24674705581666Q16.6290649375,145.22114705581666,18.1505409375,146.74264705581663Q19.6720109375,148.26414705581664,21.6464009375,149.09914705581664Q23.692090937499998,149.96444705581666,25.9287109375,149.96444705581666L212.0097109375,149.96444705581666Q214.2457109375,149.96444705581666,216.2917109375,149.09914705581664Q218.2657109375,148.26404705581666,219.7877109375,146.74264705581663Q221.3087109375,145.22114705581666,222.1437109375,143.24674705581666Q223.0097109375,141.20104705581664,223.0097109375,138.96444705581666L223.0097109375,100.37844705581665Q223.0097109375,98.14182705581665,222.1437109375,96.09613705581665Q221.3087109375,94.12174705581666,219.7877109375,92.60027705581665Q218.2657109375,91.07880905581665,216.2917109375,90.24370705581666Q214.2457109375,89.37844705581665,212.0097109375,89.37844705581665L25.9287109375,89.37844705581665Q23.692090937499998,89.37844705581665,21.6464009375,90.24370705581666Q19.6720109375,91.07880005581666,18.1505409375,92.60027705581665Q16.6290639375,94.12174705581666,15.7939709375,96.09613705581665Q14.9287109375,98.14182705581665,14.9287109375,100.37844705581665ZM212.0097109375,91.37844705581665L25.9287109375,91.37844705581665C20.9581509375,91.37844705581665,16.9287109375,95.40788705581664,16.9287109375,100.37844705581665L16.9287109375,138.96444705581666C16.9287109375,143.93504705581665,20.9581509375,147.96444705581666,25.9287109375,147.96444705581666L212.0097109375,147.96444705581666C216.9797109375,147.96444705581666,221.0097109375,143.93504705581665,221.0097109375,138.96444705581666L221.0097109375,100.37844705581665C221.0097109375,95.40788705581664,216.9797109375,91.37844705581665,212.0097109375,91.37844705581665Z" fill-rule="evenodd" fill="#FFFFFF" fill-opacity="1"/></g><g><path d="M25.9287109375,91.37844848632812C25.9287109375,91.37844848632812,212.0097109375,91.37844848632812,212.0097109375,91.37844848632812C216.9797109375,91.37844848632812,221.0097109375,95.40788848632812,221.0097109375,100.37844848632812C221.0097109375,100.37844848632812,221.0097109375,138.96444848632814,221.0097109375,138.96444848632814C221.0097109375,143.93504848632813,216.9797109375,147.96444848632814,212.0097109375,147.96444848632814C212.0097109375,147.96444848632814,25.9287109375,147.96444848632814,25.9287109375,147.96444848632814C20.9581509375,147.96444848632814,16.9287109375,143.93504848632813,16.9287109375,138.96444848632814C16.9287109375,138.96444848632814,16.9287109375,100.37844848632812,16.9287109375,100.37844848632812C16.9287109375,95.40788848632812,20.9581509375,91.37844848632812,25.9287109375,91.37844848632812C25.9287109375,91.37844848632812,25.9287109375,91.37844848632812,25.9287109375,91.37844848632812Z" fill="#46494B" fill-opacity="1"/></g><g><rect x="22.9287109375" y="97.37855386734009" width="204.0806121826172" height="56.58599853515625" rx="9" fill="#232629" fill-opacity="1"/><rect x="21.9287109375" y="96.37855386734009" width="206.0806121826172" height="58.58599853515625" rx="10" fill-opacity="0" stroke-opacity="1" stroke="#FFFFFF" fill="none" stroke-width="2"/></g><g transform="matrix(-0.7071067690849304,-0.7071067690849304,0.7071067690849304,-0.7071067690849304,316.28820631108795,329.6133079243285)"><line x1="226.4092559814453" y1="98.30122327804565" x2="237.7229642868042" y2="98.30122327804565" fill-opacity="0" stroke-opacity="1" stroke="#FFFFFF" fill="none" stroke-width="2"/></g><g transform="matrix(-0.6866129636764526,-0.7270231246948242,0.7270231246948242,-0.6866129636764526,-28.339130175750597,185.99272757180523)"><line x1="25.9169921875" y1="98.1042275428772" x2="35.104023933410645" y2="98.1042275428772" fill-opacity="0" stroke-opacity="1" stroke="#FFFFFF" fill="none" stroke-width="2"/></g><g transform="matrix(-0.7071067690849304,-0.7071067690849304,0.7071067690849304,-0.7071067690849304,-63.60980823259814,276.2543994703363)"><line x1="25.409255027770996" y1="150.3012237548828" x2="33.89453601837158" y2="150.3012237548828" fill-opacity="0" stroke-opacity="1" stroke="#FFFFFF" fill="none" stroke-width="2"/></g></g><g><path d="M83.886671875,121.2845208984375L83.886671875,112.8294708984375L82.117191875,112.8294708984375L79.574221875,118.9876708984375L79.468751875,118.9876708984375L76.925781875,112.8294708984375L75.156251875,112.8294708984375L75.156251875,121.2845208984375L76.562501875,121.2845208984375L76.562501875,115.3372808984375L76.644531875,115.3372808984375L78.982421875,120.9564208984375L80.060551875,120.9564208984375L82.398441875,115.3372808984375L82.480471875,115.3372808984375L82.480471875,121.2845208984375L83.886671875,121.2845208984375ZM88.011671875,120.2474408984375C87.367171875,120.2474408984375,86.904271875,119.9251708984375,86.904271875,119.3861108984375C86.904271875,118.8646208984375,87.285171875,118.5716508984375,88.099571875,118.5189208984375L89.546871875,118.4251708984375L89.546871875,118.9349408984375C89.546871875,119.6790808984375,88.890671875,120.2474408984375,88.011671875,120.2474408984375ZM87.583971875,121.3900208984375C88.421871875,121.3900208984375,89.124971875,121.0267208984375,89.482371875,120.4056408984375L89.582071875,120.4056408984375L89.582071875,121.2845208984375L90.982371875,121.2845208984375L90.982371875,116.9075908984375C90.982371875,115.5482208984375,90.056671875,114.7454808984375,88.410171875,114.7454808984375C86.886671875,114.7454808984375,85.826171875,115.4661908984375,85.708971875,116.5970408984375L87.080071875,116.5970408984375C87.214871875,116.1634508984375,87.671871875,115.9290808984375,88.339871875,115.9290808984375C89.124971875,115.9290808984375,89.546871875,116.2806408984375,89.546871875,116.9075908984375L89.546871875,117.4466508984375L87.894571875,117.5462608984375C86.335971875,117.6400108984375,85.462871875,118.3079808984375,85.462871875,119.4681408984375C85.462871875,120.6400108984375,86.347671875,121.3900208984375,87.583971875,121.3900208984375ZM92.582071875,116.7083708984375C92.582071875,117.6751708984375,93.162071875,118.2435308984375,94.392571875,118.5247808984375L95.529271875,118.7884508984375C96.138671875,118.9232208984375,96.414071875,119.1517308984375,96.414071875,119.5150108984375C96.414071875,119.9896208984375,95.904271875,120.3118908984375,95.171871875,120.3118908984375C94.445271875,120.3118908984375,93.994171875,120.0306408984375,93.853471875,119.5560308984375L92.417971875,119.5560308984375C92.529271875,120.7220408984375,93.537071875,121.4134208984375,95.136671875,121.4134208984375C96.736371875,121.4134208984375,97.867171875,120.5931408984375,97.867171875,119.3626708984375C97.867171875,118.4193108984375,97.298871875,117.8919708984375,96.074171875,117.6165808984375L94.943371875,117.3587608984375C94.298871875,117.2122808984375,93.994171875,116.9896208984375,93.994171875,116.6263408984375C93.994171875,116.1634508984375,94.492171875,115.8470408984375,95.154271875,115.8470408984375C95.833971875,115.8470408984375,96.261671875,116.1341508984375,96.367171875,116.5853308984375L97.732371875,116.5853308984375C97.626971875,115.4193108984375,96.671871875,114.7454808984375,95.148471875,114.7454808984375C93.636671875,114.7454808984375,92.582071875,115.5482208984375,92.582071875,116.7083708984375ZM99.800771875,113.3040808984375L99.800771875,114.9154008984375L98.787071875,114.9154008984375L98.787071875,116.0755608984375L99.800771875,116.0755608984375L99.800771875,119.5736108984375C99.800771875,120.8158008984375,100.386671875,121.3138208984375,101.857371875,121.3138208984375C102.138671875,121.3138208984375,102.408171875,121.2845208984375,102.619171875,121.2435208984375L102.619171875,120.1068108984375C102.443371875,120.1243908984375,102.332071875,120.1361108984375,102.126971875,120.1361108984375C101.517571875,120.1361108984375,101.248071875,119.8548608984375,101.248071875,119.2220408984375L101.248071875,116.0755608984375L102.619171875,116.0755608984375L102.619171875,114.9154008984375L101.248071875,114.9154008984375L101.248071875,113.3040808984375L99.800771875,113.3040808984375ZM106.76167187499999,115.8997808984375C107.634771875,115.8997808984375,108.208971875,116.5091508984375,108.23827187500001,117.4583708984375L105.220671875,117.4583708984375C105.285171875,116.5208708984375,105.894571875,115.8997808984375,106.76167187499999,115.8997808984375ZM108.249971875,119.5208708984375C108.03907187499999,119.9954808984375,107.540971875,120.2591508984375,106.820271875,120.2591508984375C105.86527187499999,120.2591508984375,105.249971875,119.5911908984375,105.214871875,118.5247808984375L105.214871875,118.4486108984375L109.691371875,118.4486108984375L109.691371875,117.9798608984375C109.691371875,115.9583708984375,108.595671875,114.7454808984375,106.767571875,114.7454808984375C104.910171875,114.7454808984375,103.755871875,116.0404008984375,103.755871875,118.1029008984375C103.755871875,120.1654008984375,104.892571875,121.4134208984375,106.779271875,121.4134208984375C108.290971875,121.4134208984375,109.35157187499999,120.6868908984375,109.62697187500001,119.5208708984375L108.249971875,119.5208708984375ZM111.15037187499999,121.2845208984375L112.603471875,121.2845208984375L112.603471875,117.5814208984375C112.603471875,116.6849408984375,113.259771875,116.0990008984375,114.20317187500001,116.0990008984375C114.44917187499999,116.0990008984375,114.835971875,116.1400108984375,114.947271875,116.1810308984375L114.947271875,114.8333708984375C114.812471875,114.7923608984375,114.554671875,114.7689208984375,114.343771875,114.7689208984375C113.517571875,114.7689208984375,112.826171875,115.2376708984375,112.65037187499999,115.8704808984375L112.55077187500001,115.8704808984375L112.55077187500001,114.8743908984375L111.15037187499999,114.8743908984375L111.15037187499999,121.2845208984375ZM119.48827187500001,112.8294708984375L119.48827187500001,121.2845208984375L120.999971875,121.2845208984375L120.999971875,118.5130608984375L122.833971875,118.5130608984375C124.544971875,118.5130608984375,125.74027187499999,117.3646208984375,125.74027187499999,115.6888408984375C125.74027187499999,113.9837608984375,124.585971875,112.8294708984375,122.898471875,112.8294708984375L119.48827187500001,112.8294708984375ZM120.999971875,114.0950908984375L122.499971875,114.0950908984375C123.589871875,114.0950908984375,124.205071875,114.6517308984375,124.205071875,115.6888408984375C124.205071875,116.6966508984375,123.572271875,117.2591508984375,122.494171875,117.2591508984375L120.999971875,117.2591508984375L120.999971875,114.0950908984375ZM129.443371875,120.2474408984375C128.798871875,120.2474408984375,128.33597187499998,119.9251708984375,128.33597187499998,119.3861108984375C128.33597187499998,118.8646208984375,128.716771875,118.5716508984375,129.53127187500002,118.5189208984375L130.978471875,118.4251708984375L130.978471875,118.9349408984375C130.978471875,119.6790808984375,130.322271875,120.2474408984375,129.443371875,120.2474408984375ZM129.015671875,121.3900208984375C129.853471875,121.3900208984375,130.556671875,121.0267208984375,130.914071875,120.4056408984375L131.013671875,120.4056408984375L131.013671875,121.2845208984375L132.414071875,121.2845208984375L132.414071875,116.9075908984375C132.414071875,115.5482208984375,131.488271875,114.7454808984375,129.841771875,114.7454808984375C128.318371875,114.7454808984375,127.257771875,115.4661908984375,127.14067187500001,116.5970408984375L128.511671875,116.5970408984375C128.646471875,116.1634508984375,129.103471875,115.9290808984375,129.771471875,115.9290808984375C130.556671875,115.9290808984375,130.978471875,116.2806408984375,130.978471875,116.9075908984375L130.978471875,117.4466508984375L129.326171875,117.5462608984375C127.767571875,117.6400108984375,126.894571875,118.3079808984375,126.894571875,119.4681408984375C126.894571875,120.6400108984375,127.779271875,121.3900208984375,129.015671875,121.3900208984375ZM134.013671875,116.7083708984375C134.013671875,117.6751708984375,134.59377187500002,118.2435308984375,135.824171875,118.5247808984375L136.96097187499998,118.7884508984375C137.570271875,118.9232208984375,137.845671875,119.1517308984375,137.845671875,119.5150108984375C137.845671875,119.9896208984375,137.33597187499998,120.3118908984375,136.603471875,120.3118908984375C135.876971875,120.3118908984375,135.425771875,120.0306408984375,135.285171875,119.5560308984375L133.849571875,119.5560308984375C133.96097187499998,120.7220408984375,134.96877187500002,121.4134208984375,136.568371875,121.4134208984375C138.167971875,121.4134208984375,139.298871875,120.5931408984375,139.298871875,119.3626708984375C139.298871875,118.4193108984375,138.730471875,117.8919708984375,137.505871875,117.6165808984375L136.374971875,117.3587608984375C135.730471875,117.2122808984375,135.425771875,116.9896208984375,135.425771875,116.6263408984375C135.425771875,116.1634508984375,135.923871875,115.8470408984375,136.58597187499998,115.8470408984375C137.265671875,115.8470408984375,137.693371875,116.1341508984375,137.798871875,116.5853308984375L139.164071875,116.5853308984375C139.05857187499998,115.4193108984375,138.103471875,114.7454808984375,136.580071875,114.7454808984375C135.068371875,114.7454808984375,134.013671875,115.5482208984375,134.013671875,116.7083708984375ZM140.623071875,116.7083708984375C140.623071875,117.6751708984375,141.203171875,118.2435308984375,142.43357187499998,118.5247808984375L143.570271875,118.7884508984375C144.179671875,118.9232208984375,144.455071875,119.1517308984375,144.455071875,119.5150108984375C144.455071875,119.9896208984375,143.945271875,120.3118908984375,143.21287187500002,120.3118908984375C142.486371875,120.3118908984375,142.035171875,120.0306408984375,141.894571875,119.5560308984375L140.458971875,119.5560308984375C140.570271875,120.7220408984375,141.578171875,121.4134208984375,143.17777187500002,121.4134208984375C144.777371875,121.4134208984375,145.908171875,120.5931408984375,145.908171875,119.3626708984375C145.908171875,118.4193108984375,145.339871875,117.8919708984375,144.11527187500002,117.6165808984375L142.984371875,117.3587608984375C142.339871875,117.2122808984375,142.035171875,116.9896208984375,142.035171875,116.6263408984375C142.035171875,116.1634508984375,142.533171875,115.8470408984375,143.195271875,115.8470408984375C143.874971875,115.8470408984375,144.30277187500002,116.1341508984375,144.408171875,116.5853308984375L145.77347187499998,116.5853308984375C145.667971875,115.4193108984375,144.71287187500002,114.7454808984375,143.18947187499998,114.7454808984375C141.67777187500002,114.7454808984375,140.623071875,115.5482208984375,140.623071875,116.7083708984375ZM155.96287187500002,114.8743908984375L154.515671875,114.8743908984375L153.455071875,119.6615008984375L153.355471875,119.6615008984375L152.113271875,114.8743908984375L150.72457187499998,114.8743908984375L149.494171875,119.6615008984375L149.394571875,119.6615008984375L148.328171875,114.8743908984375L146.863271875,114.8743908984375L148.597671875,121.2845208984375L150.109371875,121.2845208984375L151.351571875,116.6673608984375L151.451171875,116.6673608984375L152.699171875,121.2845208984375L154.228471875,121.2845208984375L155.96287187500002,114.8743908984375ZM159.994171875,121.4134208984375C161.910171875,121.4134208984375,163.076171875,120.1595408984375,163.076171875,118.0794708984375C163.076171875,116.0052508984375,161.904271875,114.7454808984375,159.994171875,114.7454808984375C158.089871875,114.7454808984375,156.91207187499998,116.0111108984375,156.91207187499998,118.0794708984375C156.91207187499998,120.1595408984375,158.072271875,121.4134208984375,159.994171875,121.4134208984375ZM159.994171875,120.1947008984375C158.980471875,120.1947008984375,158.40037187500002,119.4212608984375,158.40037187500002,118.0794708984375C158.40037187500002,116.7435308984375,158.980471875,115.9642308984375,159.994171875,115.9642308984375C161.00197187499998,115.9642308984375,161.582071875,116.7435308984375,161.582071875,118.0794708984375C161.582071875,119.4212608984375,161.007771875,120.1947008984375,159.994171875,120.1947008984375ZM164.540971875,121.2845208984375L165.994171875,121.2845208984375L165.994171875,117.5814208984375C165.994171875,116.6849408984375,166.65037187500002,116.0990008984375,167.59377187500002,116.0990008984375C167.839871875,116.0990008984375,168.226571875,116.1400108984375,168.33787187500002,116.1810308984375L168.33787187500002,114.8333708984375C168.203171875,114.7923608984375,167.945271875,114.7689208984375,167.734371875,114.7689208984375C166.908171875,114.7689208984375,166.216771875,115.2376708984375,166.040971875,115.8704808984375L165.94137187500002,115.8704808984375L165.94137187500002,114.8743908984375L164.540971875,114.8743908984375L164.540971875,121.2845208984375ZM171.847671875,121.3900208984375C172.738271875,121.3900208984375,173.476571875,120.9740008984375,173.840171875,120.2708708984375L173.939171875,120.2708708984375L173.939171875,121.2845208984375L175.34617187499998,121.2845208984375L175.34617187499998,112.3958708984375L173.892171875,112.3958708984375L173.892171875,115.8939208984375L173.79317187499998,115.8939208984375C173.453171875,115.1908008984375,172.726571875,114.7689208984375,171.847671875,114.7689208984375C170.230471875,114.7689208984375,169.21097187499998,116.0462608984375,169.21097187499998,118.0736108984375C169.21097187499998,120.1126708984375,170.22457187499998,121.3900208984375,171.847671875,121.3900208984375ZM172.298871875,116.0052508984375C173.294971875,116.0052508984375,173.910171875,116.8021208984375,173.910171875,118.0794708984375C173.910171875,119.3685308984375,173.300771875,120.1536908984375,172.298871875,120.1536908984375C171.30277187500002,120.1536908984375,170.699171875,119.3743908984375,170.699171875,118.0794708984375C170.699171875,116.7904008984375,171.30857187499998,116.0052508984375,172.298871875,116.0052508984375Z" fill="#FFFFFF" fill-opacity="1"/></g><g><g><ellipse cx="142.70172119140625" cy="136.3350830078125" rx="2.5" ry="2.5" fill="#FFFFFF" fill-opacity="1"/></g><g><ellipse cx="90.7017593383789" cy="136.3350830078125" rx="2.5" ry="2.5" fill="#FFFFFF" fill-opacity="1"/></g><g><ellipse cx="159.7017593383789" cy="136.3350830078125" rx="2.5" ry="2.5" fill="#FFFFFF" fill-opacity="1"/></g><g><ellipse cx="124.70173645019531" cy="136.3350830078125" rx="2.5" ry="2.5" fill="#FFFFFF" fill-opacity="1"/></g><g><ellipse cx="193.70174407958984" cy="136.3350830078125" rx="2.5" ry="2.5" fill="#FFFFFF" fill-opacity="1"/></g><g><ellipse cx="73.70170021057129" cy="136.3350830078125" rx="2.5" ry="2.5" fill="#FFFFFF" fill-opacity="1"/></g><g><ellipse cx="107.70175170898438" cy="136.3350830078125" rx="2.5" ry="2.5" fill="#FFFFFF" fill-opacity="1"/></g><g><ellipse cx="176.70176696777344" cy="136.3350830078125" rx="2.5" ry="2.5" fill="#FFFFFF" fill-opacity="1"/></g><g><ellipse cx="56.701759338378906" cy="136.3350830078125" rx="2.5" ry="2.5" fill="#FFFFFF" fill-opacity="1"/></g></g><g><line x1="181.091796875" y1="77.296630859375" x2="193.1511058807373" y2="77.296630859375" fill-opacity="0" stroke-opacity="1" stroke="#FFFFFF" fill="none" stroke-width="1.5"/></g><g><g transform="matrix(0.9205048680305481,-0.3907311260700226,0.3907311260700226,0.9205048680305481,-15.351385189086244,58.52508249050021)"><rect x="136.154296875" y="66.98977184295654" width="10.20403003692627" height="10.20403003692627" rx="0" fill="#232629" fill-opacity="1"/><rect x="136.904296875" y="67.73977184295654" width="8.70403003692627" height="8.70403003692627" rx="0" fill-opacity="0" stroke-opacity="1" stroke="#FFFFFF" fill="none" stroke-width="1.5"/></g><g transform="matrix(-0.1333320438861847,-0.9910714030265808,0.9910714030265808,-0.1333320438861847,-65.45643998438459,107.63523962942429)"><line x1="14.333984375" y1="81.68765640258789" x2="24.30221462249756" y2="81.68765640258789" fill-opacity="0" stroke-opacity="1" stroke="#FFFFFF" fill="none" stroke-width="1.5"/></g><g transform="matrix(-0.9933243989944458,0.11535464227199554,-0.11535464227199554,-0.9933243989944458,27.167474308015727,175.55637437870092)"><line x1="8.503971099853516" y1="87.81428337097168" x2="16.949084281921387" y2="87.81428337097168" fill-opacity="0" stroke-opacity="1" stroke="#FFFFFF" fill="none" stroke-width="1.5"/></g><g transform="matrix(-0.8107485175132751,-0.585394561290741,0.585394561290741,-0.8107485175132751,-31.106146688425838,157.80415558297193)"><line x1="9.955078125" y1="83.18021202087402" x2="19.15634822845459" y2="83.18021202087402" fill-opacity="0" stroke-opacity="1" stroke="#FFFFFF" fill="none" stroke-width="1.5"/></g><g transform="matrix(0.30901700258255005,-0.9510564804077148,0.9510564804077148,0.30901700258255005,24.9302585649275,338.6024522729431)"><line x1="245.48828125" y1="151.3944549560547" x2="253.39893627166748" y2="151.3944549560547" fill-opacity="0" stroke-opacity="1" stroke="#FFFFFF" fill="none" stroke-width="1.5"/></g><g transform="matrix(0.9510564804077148,0.30901700258255005,-0.30901700258255005,0.9510564804077148,57.468328177702006,-67.55721575597272)"><line x1="242.00390625" y1="146.89173126220703" x2="249.91456127166748" y2="146.89173126220703" fill-opacity="0" stroke-opacity="1" stroke="#FFFFFF" fill="none" stroke-width="1.5"/></g><g transform="matrix(0.32730215787887573,-0.9449197053909302,0.9449197053909302,0.32730215787887573,74.8691799974954,270.7329593855345)"><line x1="227.580078125" y1="82.03316879272461" x2="235.0900797843933" y2="82.03316879272461" fill-opacity="0" stroke-opacity="1" stroke="#FFFFFF" fill="none" stroke-width="1.5"/></g><g transform="matrix(0.8875277042388916,-0.46075430512428284,0.46075430512428284,0.8875277042388916,-13.776261542212694,115.82739818493474)"><line x1="230.361328125" y1="85.38165092468262" x2="240.03856372833252" y2="85.38165092468262" fill-opacity="0" stroke-opacity="1" stroke="#FFFFFF" fill="none" stroke-width="1.5"/></g></g></g></svg>