<svg width="90" height="90" viewBox="0 0 90 90" fill="none" xmlns="http://www.w3.org/2000/svg">
<g id="Group 1228">
<path id="Vector" d="M89.0551 44.6462C89.1664 69.4154 69.3199 89.5842 44.7302 89.6963C20.1371 89.8084 0.111793 69.8198 0.000466074 45.0505C-0.110861 20.2813 19.7357 0.112566 44.3287 0.000441534C68.9185 -0.108285 88.9438 19.877 89.0551 44.6462Z" fill="#FFE866"/>
<path id="Vector_2" d="M67.1102 28.7994C63.8783 27.8582 60.5318 26.5195 57.138 25.1707C56.9424 24.3144 56.1901 23.2476 54.6652 21.9394C52.4488 20.0028 48.2859 20.0537 44.6897 20.9099C40.719 19.9688 36.7956 19.6324 33.0307 20.543C2.24384 29.0882 19.6985 49.9263 8.3938 70.8799C10.003 74.315 27.3396 94.3682 52.4252 88.9862C52.4252 88.9862 43.8463 68.2229 63.207 58.2541C78.9108 50.1709 90.256 35.1599 67.1068 28.796L67.1102 28.7994Z" fill="#4BCC00"/>
<path id="Vector_3" d="M46.8218 33.7976C46.8218 38.5883 42.9658 42.4685 38.2125 42.4685C33.4592 42.4685 29.6033 38.5883 29.6033 33.7976C29.6033 29.0068 33.4592 25.13 38.2125 25.13C42.9658 25.13 46.8218 29.0102 46.8218 33.7976Z" fill="white"/>
<path id="Vector_4" d="M77.8851 46.2744C70.912 51.2249 62.9741 54.9793 51.7234 54.9793C46.4573 54.9793 45.3879 49.3425 41.9064 52.1049C40.1083 53.5319 33.7728 56.7223 28.7428 56.4811C23.669 56.2365 15.5692 53.2669 13.292 42.4588C12.3913 53.2669 11.9325 61.2311 7.90112 70.3573C15.9268 83.2992 35.0581 93.2816 52.4251 88.9903C50.5595 75.865 61.9485 63.0115 68.365 56.4335C70.794 53.943 75.4494 49.876 77.8851 46.2744Z" fill="#4BCC00"/>
<ellipse id="Ellipse 217" cx="41.8416" cy="33.7361" rx="5.05201" ry="7.07281" fill="#0D1217"/>
<path id="Vector_5" d="M43.8623 20.8941C46.6187 21.9958 56.6842 25.3483 61.0391 26.6643C56.5926 19.2864 49.8543 19.7121 43.8623 20.8941Z" fill="#35AF00"/>
<path id="Vector 22" d="M41.8416 33.7353L35.7791 29.6937V37.7769L41.8416 33.7353Z" fill="white"/>
</g>
</svg>
