<svg width="24" height="24" viewBox="0 0 24 24" fill="none" xmlns="http://www.w3.org/2000/svg">
<path fill-rule="evenodd" clip-rule="evenodd" d="M24 12C24 18.6274 18.6274 24 12 24C5.37258 24 0 18.6274 0 12C0 5.37258 5.37258 0 12 0C18.6274 0 24 5.37258 24 12ZM14.643 5.66842C15.0216 5.67634 17.0037 5.7398 19.131 7.2662C19.131 7.2662 21.5079 11.2527 21.5076 16.1488C21.493 16.1315 21.4347 16.1904 21.3274 16.2987C20.8461 16.7848 19.3783 18.2672 16.4395 18.3319C16.4395 18.3319 15.8352 17.6595 15.4001 17.0663C17.4953 16.4731 18.2849 15.2867 18.2849 15.2867C16.1069 16.6334 14.0726 17.1514 12 17.0842C9.92744 17.1516 7.89316 16.6334 5.7152 15.2867C5.7152 15.2867 6.5048 16.4731 8.59976 17.0663C8.16469 17.6595 7.56037 18.3319 7.56037 18.3319C4.62149 18.2672 3.15374 16.7848 2.6724 16.2987C2.56515 16.1904 2.50687 16.1315 2.4922 16.1488C2.4922 11.2527 4.86916 7.2662 4.86916 7.2662C6.99632 5.73961 8.97848 5.67634 9.35716 5.66842L9.59893 5.89781C6.88352 6.65713 5.57015 7.84359 5.57015 7.84359C7.90084 6.71794 10.0973 6.32228 12 6.29828C13.9029 6.32209 16.0992 6.71794 18.43 7.84359C18.43 7.84359 17.1166 6.65713 14.4012 5.89781L14.643 5.66842ZM7.41512 12.9216C7.41512 13.855 8.15639 14.6143 9.07496 14.6143H9.07516C9.99364 14.6143 10.735 13.855 10.7348 12.9295C10.7348 11.9962 9.98548 11.2369 9.07496 11.2369V11.2289C8.15639 11.2289 7.41512 11.9882 7.41512 12.9216ZM13.2649 12.9295C13.2649 13.855 14.0061 14.6143 14.9247 14.6143H14.9249C15.8435 14.6143 16.5846 13.8549 16.5846 12.9216C16.5846 11.9883 15.8433 11.2289 14.9247 11.2289V11.2369C14.0142 11.2369 13.2649 11.9962 13.2649 12.9295Z" fill="#A7B3CF"/>
</svg>
