<svg width="27" height="22" viewBox="0 0 27 22" fill="none" xmlns="http://www.w3.org/2000/svg">
<path d="M26.2327 2.99098C25.2827 3.41193 24.2622 3.69635 23.1894 3.82491C24.2963 3.16254 25.1245 2.12005 25.5194 0.891954C24.4793 1.50971 23.3411 1.94453 22.1541 2.17754C21.3559 1.32526 20.2986 0.760353 19.1464 0.570528C17.9942 0.380703 16.8116 0.576577 15.7822 1.12774C14.7527 1.67891 13.934 2.55452 13.4532 3.61865C12.9724 4.68277 12.8564 5.87587 13.1231 7.0127C11.0158 6.90689 8.95423 6.35916 7.07226 5.40504C5.1903 4.45093 3.52998 3.11176 2.19907 1.47445C1.744 2.25945 1.48233 3.1696 1.48233 4.13891C1.48182 5.01151 1.69671 5.87074 2.10792 6.64037C2.51913 7.41001 3.11395 8.06624 3.83961 8.55085C2.99804 8.52408 2.17504 8.29668 1.4391 7.88758V7.95584C1.43901 9.1797 1.86235 10.3659 2.63729 11.3132C3.41222 12.2604 4.49102 12.9104 5.69063 13.1528C4.90993 13.3641 4.09143 13.3952 3.29694 13.2438C3.6354 14.2969 4.29468 15.2177 5.1825 15.8775C6.07032 16.5372 7.14222 16.9028 8.24815 16.9231C6.37078 18.3969 4.05223 19.1963 1.6655 19.1928C1.24271 19.1929 0.820283 19.1682 0.400391 19.1188C2.82307 20.6765 5.64323 21.5032 8.52347 21.5C18.2734 21.5 23.6035 13.4247 23.6035 6.42111C23.6035 6.19357 23.5978 5.96376 23.5876 5.73622C24.6243 4.98645 25.5193 4.05801 26.2304 2.9944L26.2327 2.99098V2.99098Z" fill="#A7B3CF"/>
</svg>
